<svg width="993" height="207" viewBox="0 0 993 207" fill="none" xmlns="http://www.w3.org/2000/svg">
  <path
    d="M0.71875 159V0.454541H114.983V35.1364H43.7614V62.3864H109.099V97.0682H43.7614V124.318H114.673V159H0.71875ZM179.992 160.548C171.528 160.548 163.735 158.329 156.613 153.891C149.542 149.452 143.865 142.717 139.581 133.685C135.349 124.654 133.233 113.274 133.233 99.5455C133.233 85.1979 135.453 73.5341 139.891 64.554C144.381 55.5739 150.162 48.9936 157.232 44.8132C164.354 40.6328 171.838 38.5426 179.682 38.5426C185.566 38.5426 190.727 39.5748 195.165 41.6392C199.604 43.652 203.32 46.3615 206.313 49.7677C209.306 53.1224 211.577 56.8125 213.126 60.8381H213.745V0.454541H256.478V159H214.055V139.491H213.126C211.474 143.517 209.1 147.13 206.003 150.33C202.958 153.478 199.242 155.981 194.856 157.839C190.52 159.645 185.566 160.548 179.992 160.548ZM195.785 127.724C199.707 127.724 203.062 126.589 205.849 124.318C208.687 121.996 210.855 118.744 212.351 114.564C213.9 110.332 214.674 105.326 214.674 99.5455C214.674 93.6619 213.9 88.63 212.351 84.4496C210.855 80.2176 208.687 76.9919 205.849 74.7727C203.062 72.5019 199.707 71.3665 195.785 71.3665C191.862 71.3665 188.508 72.5019 185.721 74.7727C182.985 76.9919 180.869 80.2176 179.373 84.4496C177.928 88.63 177.205 93.6619 177.205 99.5455C177.205 105.429 177.928 110.487 179.373 114.719C180.869 118.899 182.985 122.125 185.721 124.396C188.508 126.615 191.862 127.724 195.785 127.724ZM334.744 206.068C322.822 206.068 312.604 204.365 304.088 200.959C295.624 197.604 289.044 192.959 284.347 187.024C279.702 181.141 277.096 174.38 276.528 166.741H317.713C318.126 169.27 319.158 171.309 320.809 172.857C322.461 174.406 324.577 175.515 327.157 176.186C329.79 176.909 332.731 177.27 335.983 177.27C341.505 177.27 346.073 175.928 349.685 173.244C353.349 170.561 355.182 165.709 355.182 158.69V138.562H353.943C352.395 142.588 350.021 146.02 346.821 148.859C343.621 151.646 339.776 153.787 335.286 155.284C330.796 156.729 325.867 157.452 320.5 157.452C312.036 157.452 304.243 155.491 297.121 151.568C290.05 147.646 284.373 141.427 280.089 132.911C275.857 124.396 273.741 113.274 273.741 99.5455C273.741 85.1979 275.961 73.5341 280.399 64.554C284.889 55.5739 290.669 48.9936 297.74 44.8132C304.862 40.6328 312.345 38.5426 320.19 38.5426C326.074 38.5426 331.235 39.5748 335.673 41.6392C340.112 43.652 343.827 46.3615 346.821 49.7677C349.814 53.1224 352.085 56.8125 353.633 60.8381H354.562V40.0909H397.295V158.69C397.295 168.754 394.689 177.296 389.476 184.315C384.315 191.385 377.038 196.778 367.645 200.494C358.252 204.21 347.285 206.068 334.744 206.068ZM336.292 127.105C340.215 127.105 343.569 126.021 346.356 123.854C349.195 121.634 351.363 118.486 352.859 114.409C354.407 110.28 355.182 105.326 355.182 99.5455C355.182 93.6619 354.407 88.63 352.859 84.4496C351.363 80.2176 349.195 76.9919 346.356 74.7727C343.569 72.5019 340.215 71.3665 336.292 71.3665C332.37 71.3665 329.015 72.5019 326.229 74.7727C323.493 76.9919 321.377 80.2176 319.881 84.4496C318.435 88.63 317.713 93.6619 317.713 99.5455C317.713 105.429 318.435 110.435 319.881 114.564C321.377 118.641 323.493 121.763 326.229 123.931C329.015 126.047 332.37 127.105 336.292 127.105ZM452.163 160.858C444.576 160.858 437.867 159.619 432.035 157.142C426.255 154.613 421.713 150.794 418.41 145.685C415.107 140.575 413.456 134.072 413.456 126.176C413.456 119.673 414.565 114.125 416.784 109.532C419.004 104.887 422.1 101.094 426.074 98.152C430.048 95.2102 434.667 92.9652 439.931 91.4169C445.247 89.8686 450.976 88.8622 457.118 88.3977C463.775 87.8816 469.117 87.2623 473.142 86.5398C477.22 85.7656 480.161 84.7076 481.968 83.3658C483.774 81.9723 484.677 80.1402 484.677 77.8693V77.5597C484.677 74.4631 483.49 72.089 481.116 70.4375C478.742 68.786 475.697 67.9602 471.981 67.9602C467.904 67.9602 464.575 68.8634 461.995 70.6697C459.466 72.4245 457.943 75.134 457.427 78.7983H418.1C418.617 71.5729 420.913 64.9152 424.99 58.8253C429.119 52.6837 435.132 47.7808 443.028 44.1165C450.924 40.4006 460.782 38.5426 472.601 38.5426C481.116 38.5426 488.754 39.549 495.515 41.5618C502.276 43.523 508.031 46.2841 512.779 49.8452C517.527 53.3546 521.14 57.4834 523.617 62.2315C526.146 66.928 527.41 72.0374 527.41 77.5597V159H487.464V142.278H486.535C484.161 146.717 481.271 150.304 477.865 153.039C474.51 155.774 470.665 157.761 466.33 159C462.046 160.239 457.324 160.858 452.163 160.858ZM466.098 133.918C469.349 133.918 472.394 133.247 475.233 131.905C478.123 130.563 480.471 128.628 482.277 126.099C484.084 123.57 484.987 120.499 484.987 116.886V106.977C483.851 107.442 482.639 107.88 481.348 108.293C480.11 108.706 478.768 109.093 477.323 109.455C475.929 109.816 474.433 110.151 472.833 110.461C471.284 110.771 469.659 111.054 467.956 111.312C464.653 111.829 461.943 112.68 459.827 113.867C457.763 115.003 456.214 116.422 455.182 118.125C454.202 119.777 453.711 121.634 453.711 123.699C453.711 127.002 454.873 129.531 457.195 131.286C459.517 133.04 462.485 133.918 466.098 133.918ZM547.828 159V40.0909H589.323V62.696H590.561C592.729 54.3352 596.161 48.2195 600.857 44.3487C605.606 40.478 611.154 38.5426 617.502 38.5426C619.36 38.5426 621.192 38.6974 622.998 39.0071C624.856 39.2652 626.637 39.6522 628.34 40.1683V76.6307C626.224 75.9081 623.617 75.3662 620.521 75.005C617.424 74.6437 614.766 74.4631 612.547 74.4631C608.367 74.4631 604.599 75.4178 601.244 77.3274C597.941 79.1854 595.335 81.8175 593.426 85.2237C591.516 88.5784 590.561 92.5265 590.561 97.0682V159H547.828Z"
    fill="#EA580C" />
  <path
    d="M641.732 159V0.454541H710.167C721.934 0.454541 732.23 2.77699 741.056 7.42188C749.881 12.0668 756.745 18.5954 761.648 27.0078C766.551 35.4202 769.002 45.2519 769.002 56.5028C769.002 67.857 766.473 77.6887 761.416 85.9979C756.41 94.3071 749.365 100.707 740.281 105.197C731.25 109.687 720.695 111.932 708.619 111.932H667.744V78.4886H699.948C705.006 78.4886 709.316 77.6113 712.877 75.8565C716.489 74.0502 719.25 71.4955 721.16 68.1925C723.121 64.8894 724.102 60.9929 724.102 56.5028C724.102 51.9612 723.121 48.0904 721.16 44.8906C719.25 41.6392 716.489 39.1619 712.877 37.4588C709.316 35.7041 705.006 34.8267 699.948 34.8267H684.775V159H641.732ZM785.414 159V40.0909H826.909V62.696H828.147C830.315 54.3352 833.747 48.2195 838.443 44.3487C843.191 40.478 848.74 38.5426 855.088 38.5426C856.945 38.5426 858.778 38.6974 860.584 39.0071C862.442 39.2652 864.222 39.6522 865.926 40.1683V76.6307C863.81 75.9081 861.203 75.3662 858.107 75.005C855.01 74.6437 852.352 74.4631 850.133 74.4631C845.953 74.4631 842.185 75.4178 838.83 77.3274C835.527 79.1854 832.921 81.8175 831.012 85.2237C829.102 88.5784 828.147 92.5265 828.147 97.0682V159H785.414ZM930.412 161.168C917.51 161.168 906.465 158.613 897.279 153.504C888.092 148.343 881.047 141.169 876.144 131.982C871.241 122.744 868.79 112.035 868.79 99.8551C868.79 87.6752 871.241 76.9919 876.144 67.8054C881.047 58.5672 888.092 51.3935 897.279 46.2841C906.465 41.1231 917.51 38.5426 930.412 38.5426C943.315 38.5426 954.359 41.1231 963.546 46.2841C972.732 51.3935 979.777 58.5672 984.68 67.8054C989.583 76.9919 992.034 87.6752 992.034 99.8551C992.034 112.035 989.583 122.744 984.68 131.982C979.777 141.169 972.732 148.343 963.546 153.504C954.359 158.613 943.315 161.168 930.412 161.168ZM930.722 129.582C934.334 129.582 937.457 128.37 940.089 125.944C942.721 123.518 944.76 120.06 946.205 115.57C947.65 111.08 948.372 105.739 948.372 99.5455C948.372 93.3007 947.65 87.959 946.205 83.5206C944.76 79.0305 942.721 75.5727 940.089 73.147C937.457 70.7214 934.334 69.5085 930.722 69.5085C926.903 69.5085 923.625 70.7214 920.89 73.147C918.155 75.5727 916.065 79.0305 914.619 83.5206C913.174 87.959 912.452 93.3007 912.452 99.5455C912.452 105.739 913.174 111.08 914.619 115.57C916.065 120.06 918.155 123.518 920.89 125.944C923.625 128.37 926.903 129.582 930.722 129.582Z"
    fill="#374151" />
</svg>