<svg width="36" height="36" viewBox="0 0 36 36" fill="none" xmlns="http://www.w3.org/2000/svg">
  <path fillRule="evenodd" clipRule="evenodd"
    d="M19.7996 0.26001L19.0596 9.38001C18.7096 9.34001 18.3596 9.32001 17.9996 9.32001C17.5496 9.32001 17.1096 9.35001 16.6796 9.42001L16.2596 5.00001C16.2496 4.86001 16.3596 4.74001 16.4996 4.74001H17.2496L16.8896 0.27001C16.8796 0.13001 16.9896 0.0100098 17.1196 0.0100098H19.5696C19.7096 0.0100098 19.8196 0.13001 19.7996 0.27001V0.26001ZM13.6196 0.71001C13.5796 0.58001 13.4396 0.50001 13.3096 0.55001L11.0096 1.39001C10.8796 1.44001 10.8196 1.59001 10.8796 1.71001L12.7496 5.79001L12.0396 6.05001C11.9096 6.10001 11.8496 6.25001 11.9096 6.37001L13.8196 10.38C14.5096 10 15.2596 9.71001 16.0496 9.53001L13.6296 0.71001H13.6196ZM7.97961 3.25001L13.2696 10.71C12.5996 11.15 11.9896 11.67 11.4696 12.27L8.29961 9.15001C8.19961 9.05001 8.20961 8.89001 8.30961 8.80001L8.88961 8.32001L5.73961 5.13001C5.63961 5.03001 5.64961 4.87001 5.75961 4.78001L7.62961 3.21001C7.73961 3.12001 7.88961 3.14001 7.96961 3.25001H7.97961ZM3.53961 7.57001C3.42961 7.49001 3.26961 7.53001 3.19961 7.65001L1.97961 9.77001C1.90961 9.89001 1.95961 10.04 2.07961 10.1L6.13961 12.02L5.75961 12.67C5.68961 12.79 5.73961 12.95 5.86961 13L9.90961 14.85C10.1996 14.1 10.5896 13.4 11.0696 12.77L3.53961 7.57001ZM0.54961 13.33C0.56961 13.19 0.70961 13.11 0.83961 13.14L9.68961 15.45C9.45961 16.2 9.32961 16.99 9.30961 17.81L4.87961 17.45C4.73961 17.44 4.63961 17.31 4.66961 17.17L4.79961 16.43L0.32961 16.01C0.18961 16 0.09961 15.87 0.11961 15.73L0.53961 13.32L0.54961 13.33ZM0.21961 19.31C0.07961 19.32 -0.0103899 19.45 0.00961005 19.59L0.43961 22C0.45961 22.14 0.59961 22.22 0.72961 22.19L5.06961 21.06L5.19961 21.8C5.21961 21.94 5.35961 22.02 5.48961 21.99L9.76961 20.81C9.51961 20.07 9.35961 19.28 9.31961 18.47L0.20961 19.31H0.21961ZM1.63961 25.65C1.56961 25.53 1.61961 25.38 1.73961 25.32L9.99961 21.4C10.3096 22.14 10.7296 22.83 11.2296 23.45L7.60961 26.03C7.49961 26.11 7.33961 26.08 7.26961 25.96L6.88961 25.3L3.19961 27.85C3.08961 27.93 2.92961 27.89 2.85961 27.77L1.62961 25.65H1.63961ZM11.6496 23.93L5.21961 30.44C5.11961 30.54 5.12961 30.7 5.23961 30.79L7.11961 32.36C7.22961 32.45 7.37961 32.43 7.45961 32.32L10.0596 28.66L10.6396 29.15C10.7496 29.24 10.9096 29.22 10.9896 29.1L13.5096 25.44C12.8296 25.02 12.1996 24.51 11.6596 23.93H11.6496ZM10.3796 34.38C10.2496 34.33 10.1896 34.18 10.2496 34.06L14.0596 25.74C14.7596 26.1 15.5196 26.37 16.3096 26.52L15.1896 30.82C15.1596 30.95 15.0096 31.03 14.8796 30.98L14.1696 30.72L12.9796 35.05C12.9396 35.18 12.7996 35.26 12.6696 35.21L10.3696 34.37L10.3796 34.38ZM16.9396 26.63L16.1996 35.75C16.1896 35.89 16.2996 36.01 16.4296 36.01H18.8796C19.0196 36.01 19.1296 35.89 19.1096 35.75L18.7496 31.28H19.4996C19.6396 31.28 19.7496 31.16 19.7396 31.02L19.3196 26.6C18.8896 26.67 18.4496 26.7 17.9996 26.7C17.6396 26.7 17.2896 26.68 16.9396 26.63ZM25.7596 1.94001C25.8196 1.81001 25.7596 1.67001 25.6296 1.62001L23.3296 0.78001C23.1996 0.73001 23.0596 0.81001 23.0196 0.94001L21.8296 5.27001L21.1196 5.01001C20.9896 4.96001 20.8496 5.04001 20.8096 5.17001L19.6896 9.47001C20.4896 9.63001 21.2396 9.90001 21.9396 10.25L25.7596 1.94001ZM30.7796 5.57001L24.3496 12.08C23.8096 11.5 23.1896 10.99 22.4996 10.57L25.0196 6.91001C25.0996 6.80001 25.2596 6.77001 25.3696 6.86001L25.9496 7.35001L28.5496 3.69001C28.6296 3.58001 28.7896 3.56001 28.8896 3.65001L30.7696 5.22001C30.8796 5.31001 30.8796 5.47001 30.7896 5.57001H30.7796ZM34.2596 10.69C34.3896 10.63 34.4296 10.48 34.3596 10.36L33.1296 8.24001C33.0596 8.12001 32.8996 8.09001 32.7896 8.16001L29.0996 10.71L28.7196 10.06C28.6496 9.94001 28.4896 9.90001 28.3796 9.99001L24.7596 12.57C25.2596 13.19 25.6696 13.88 25.9896 14.62L34.2496 10.7L34.2596 10.69ZM35.5596 14.01L35.9796 16.42C35.9996 16.56 35.9096 16.68 35.7696 16.7L26.6596 17.55C26.6196 16.73 26.4596 15.95 26.2096 15.21L30.4896 14.03C30.6196 13.99 30.7596 14.08 30.7796 14.22L30.9096 14.96L35.2496 13.83C35.3796 13.8 35.5196 13.88 35.5396 14.02L35.5596 14.01ZM35.1496 22.86C35.2796 22.89 35.4196 22.81 35.4396 22.67L35.8596 20.26C35.8796 20.12 35.7896 20 35.6496 19.98L31.1796 19.56L31.3096 18.82C31.3296 18.68 31.2396 18.56 31.0996 18.54L26.6696 18.18C26.6496 19 26.5196 19.79 26.2896 20.54L35.1396 22.85L35.1496 22.86ZM32.7896 28.36C32.7196 28.48 32.5596 28.51 32.4496 28.44L24.9196 23.24C25.3996 22.61 25.7896 21.91 26.0796 21.16L30.1196 23.01C30.2496 23.07 30.2996 23.22 30.2296 23.34L29.8496 23.99L33.9096 25.91C34.0296 25.97 34.0796 26.12 34.0096 26.24L32.7896 28.36ZM22.7196 25.29L28.0096 32.75C28.0896 32.86 28.2496 32.88 28.3496 32.79L30.2196 31.22C30.3296 31.13 30.3296 30.97 30.2396 30.87L27.0896 27.68L27.6696 27.2C27.7796 27.11 27.7796 26.95 27.6796 26.85L24.5096 23.73C23.9796 24.33 23.3796 24.86 22.7096 25.29H22.7196ZM22.6696 35.45C22.5396 35.5 22.3996 35.42 22.3596 35.29L19.9396 26.47C20.7296 26.29 21.4796 26 22.1696 25.62L24.0796 29.63C24.1396 29.76 24.0796 29.91 23.9496 29.95L23.2396 30.21L25.1096 34.29C25.1696 34.42 25.1096 34.56 24.9796 34.61L22.6796 35.45H22.6696Z"
    fill="#191919" />
</svg>